<?xml version="1.0" encoding="UTF-8"?>
<svg version="1.1" xmlns="http://www.w3.org/2000/svg" width="300" height="300">
<path d="M0 0 C99 0 198 0 300 0 C300 99 300 198 300 300 C201 300 102 300 0 300 C0 201 0 102 0 0 Z " fill="#FEFEFE" transform="translate(0,0)"/>
<path d="M0 0 C18.52125 -0.061875 37.0425 -0.12375 56.125 -0.1875 C61.94914551 -0.21481201 67.77329102 -0.24212402 73.77392578 -0.27026367 C80.94702148 -0.28381348 80.94702148 -0.28381348 84.31686401 -0.28633118 C86.64459967 -0.29090443 88.97232872 -0.30138532 91.30001831 -0.31672668 C108.43432398 -0.42390145 123.51893706 -0.22065521 139 8 C139.84175781 8.44214844 140.68351563 8.88429688 141.55078125 9.33984375 C158.63853375 18.93343419 169.74505315 33.94579284 176.09765625 52.14453125 C180.95555718 69.74594902 178.26920029 87.2230074 171.33984375 103.6796875 C169.14002754 108.33572845 169.14002754 108.33572845 169.85546875 113.0859375 C170.29503906 113.84132813 170.73460937 114.59671875 171.1875 115.375 C179.265116 130.96615267 180.54676136 148.88329139 176.5 165.9375 C172.06395995 179.84842699 165.61839967 190.99477552 155 201 C154.20851562 201.74894531 153.41703125 202.49789062 152.6015625 203.26953125 C138.37840105 215.62619809 120.25230062 220.17765815 101.83227539 220.11352539 C100.71135467 220.11364593 99.59043394 220.11376646 98.43554592 220.11389065 C94.82289554 220.11314687 91.21029735 220.10554302 87.59765625 220.09765625 C85.36096217 220.09618517 83.12426774 220.09516548 80.88757324 220.09460449 C72.61254356 220.0893708 64.33752126 220.07540955 56.0625 220.0625 C37.561875 220.041875 19.06125 220.02125 0 220 C0 147.4 0 74.8 0 0 Z " fill="#52925B" transform="translate(61,40)"/>
<path d="M0 0 C18.52125 -0.061875 37.0425 -0.12375 56.125 -0.1875 C61.94914551 -0.21481201 67.77329102 -0.24212402 73.77392578 -0.27026367 C80.94702148 -0.28381348 80.94702148 -0.28381348 84.31686401 -0.28633118 C86.64459967 -0.29090443 88.97232872 -0.30138532 91.30001831 -0.31672668 C108.43432398 -0.42390145 123.51893706 -0.22065521 139 8 C139.84175781 8.44214844 140.68351563 8.88429688 141.55078125 9.33984375 C158.63853375 18.93343419 169.74505315 33.94579284 176.09765625 52.14453125 C181.45176529 71.54383795 177.83375186 91.33249628 169 109 C165.73577456 107.62301411 164.17283485 106.22470588 162.1875 103.3125 C158.61383531 98.37531736 154.91751462 93.40963371 149.33203125 90.7109375 C146.08370831 89.07074058 144.2088705 87.9246675 142 85 C141.0989817 79.99382604 141.63808136 74.88690837 141.88671875 69.8359375 C142.13595902 64.09792132 141.0650996 59.87505456 138 55 C137.51402344 54.2265625 137.02804688 53.453125 136.52734375 52.65625 C130.40953443 43.97850628 122.82899287 38.98739533 112.55822754 36.59140015 C105.62316592 35.4387486 98.65128325 35.51501517 91.640625 35.48828125 C90.18341661 35.47277362 88.72622143 35.45596951 87.26904297 35.43786621 C81.92950715 35.38045034 76.5897271 35.34791024 71.25 35.3125 C53.30625 35.1578125 53.30625 35.1578125 35 35 C35 60.08 35 85.16 35 111 C43.34539062 110.91298828 43.34539062 110.91298828 51.859375 110.82421875 C55.40497746 110.79864106 58.95046458 110.7745695 62.49609375 110.75585938 C68.11173418 110.72608439 73.72696315 110.69103788 79.34228516 110.62280273 C83.87460051 110.56807875 88.40647405 110.53849525 92.93909454 110.52561378 C94.65972082 110.51644577 96.38032563 110.49854448 98.10076141 110.47134972 C111.96753609 110.26107456 122.7307513 111.96731997 133.16015625 122.01953125 C137.14332848 126.30714977 139.39672766 130.38854681 141 136 C123.38069914 145.10828265 106.92737282 145.5621013 87.5 145.390625 C85.25260821 145.38473007 83.0052109 145.38065787 80.7578125 145.37841797 C72.50512356 145.35760625 64.25255285 145.30176168 56 145.25 C37.52 145.1675 19.04 145.085 0 145 C0 97.15 0 49.3 0 0 Z " fill="#084635" transform="translate(61,40)"/>
<path d="M0 0 C2.87425562 8.62276685 1.26101052 17.23972134 -2.51953125 25.27734375 C-7.52217958 34.47746483 -14.26564715 40.88993991 -24 45 C-28.23661761 46.09571814 -32.38080072 46.13549477 -36.7277832 46.11352539 C-37.87004616 46.11374443 -37.87004616 46.11374443 -39.03538513 46.1139679 C-41.54054662 46.11327387 -44.04563282 46.1055054 -46.55078125 46.09765625 C-48.29241393 46.09579026 -50.03404714 46.09436721 -51.77568054 46.09336853 C-56.35085509 46.08955762 -60.9259977 46.07973953 -65.50115967 46.06866455 C-70.99531647 46.05661727 -76.48948397 46.0520414 -81.98365021 46.04621124 C-90.32245566 46.03652699 -98.66119108 46.01736046 -107 46 C-107 33.13 -107 20.26 -107 7 C-101.4828125 6.97421875 -95.965625 6.9484375 -90.28125 6.921875 C-86.75386196 6.896663 -83.226556 6.87029674 -79.69921875 6.83984375 C-74.11930196 6.79177767 -68.53957554 6.74763345 -62.95947266 6.72900391 C-58.45287671 6.71368813 -53.94678411 6.67898474 -49.44041443 6.63169098 C-47.73437413 6.61702911 -46.0282619 6.60896789 -44.32215881 6.60811615 C-31.75715455 6.59555278 -19.86166212 5.57619707 -8.2298584 0.34613037 C-4.81195066 -1.07837462 -3.44797178 -1.14932393 0 0 Z " fill="#FCFDFD" transform="translate(203,178)"/>
<path d="M0 0 C18.85559692 -0.12032643 18.85559692 -0.12032643 26.93164062 -0.14648438 C32.42888138 -0.16437447 37.92597133 -0.18547263 43.4230957 -0.22631836 C47.85811065 -0.25906365 52.29296372 -0.27688484 56.72809029 -0.28463173 C58.41486723 -0.29014813 60.10163594 -0.30091998 61.78834343 -0.31719017 C75.43094785 -0.44348022 86.27771246 0.93040064 96.72265625 10.59375 C103.03778673 17.44187103 107.13382017 26.00441772 107.1875 35.3125 C107.20167969 36.42238281 107.21585937 37.53226563 107.23046875 38.67578125 C106.99333157 42.0961836 106.22108501 44.80973443 105 48 C104.175 47.72285156 103.35 47.44570312 102.5 47.16015625 C98.67481079 45.89220849 94.84171315 44.65428321 91 43.4375 C90.31421875 43.21642578 89.6284375 42.99535156 88.921875 42.76757812 C88.24640625 42.55423828 87.5709375 42.34089844 86.875 42.12109375 C86.27429688 41.9295874 85.67359375 41.73808105 85.0546875 41.54077148 C79.81046534 40.16054904 74.64866213 39.83916144 69.25048828 39.79467773 C68.49858719 39.78477814 67.7466861 39.77487854 66.97200012 39.76467896 C64.50480214 39.73327605 62.03758496 39.7083911 59.5703125 39.68359375 C57.85252401 39.66300587 56.13474038 39.64200893 54.41696167 39.62062073 C49.90926055 39.5655894 45.40151515 39.51609708 40.89373779 39.46777344 C35.47792753 39.40855685 30.06219769 39.34243369 24.64645386 39.27747345 C16.43101861 39.17970243 8.21553031 39.0906834 0 39 C0 26.13 0 13.26 0 0 Z " fill="#FCFEFD" transform="translate(97,76)"/>
</svg>
